<?xml version="1.0" encoding="UTF-8"?>
<svg width="995px" height="1066px" viewBox="0 0 995 1066" version="1.1" xmlns="http://www.w3.org/2000/svg" xmlns:xlink="http://www.w3.org/1999/xlink">
    <!-- Generator: Sketch 47.1 (45422) - http://www.bohemiancoding.com/sketch -->
    <title>Group</title>
    <desc>Created with Sketch.</desc>
    <defs></defs>
    <g id="Page-1" stroke="none" stroke-width="1" fill="none" fill-rule="evenodd">
        <g id="Artboard" transform="translate(-30.000000, -27.000000)" stroke-width="2" stroke="#000000">
            <g id="Group" transform="translate(31.000000, 29.000000)">
                <polygon id="Polygon-3" points="141.595154 0 283.190307 81.75 283.190307 245.25 141.595154 327 8.8817842e-14 245.25 -3.55271368e-15 81.75"></polygon>
                <polygon id="Polygon-3-Copy-4" points="849.595154 245 991.190307 326.75 991.190307 490.25 849.595154 572 708 490.25 708 326.75"></polygon>
                <polygon id="Polygon-3-Copy" points="283.595154 245 425.190307 326.75 425.190307 490.25 283.595154 572 142 490.25 142 326.75"></polygon>
                <polygon id="Polygon-3-Copy-5" points="708.595154 490 850.190307 571.75 850.190307 735.25 708.595154 817 567 735.25 567 571.75"></polygon>
                <polygon id="Polygon-3-Copy-7" points="850.595154 735 992.190307 816.75 992.190307 980.25 850.595154 1062 709 980.25 709 816.75"></polygon>
                <polygon id="Polygon-3-Copy-6" points="425.595154 490 567.190307 571.75 567.190307 735.25 425.595154 817 284 735.25 284 571.75"></polygon>
                <polygon id="Polygon-3-Copy-8" points="142.595154 490 284.190307 571.75 284.190307 735.25 142.595154 817 1 735.25 1 571.75"></polygon>
            </g>
        </g>
    </g>
</svg>