<!--?xml version="1.0" encoding="UTF-8"?-->
<svg width="995px" height="1066px" viewBox="0 0 995 1066" version="1.1" xmlns="http://www.w3.org/2000/svg" xmlns:xlink="http://www.w3.org/1999/xlink">
    <!-- Generator: Sketch 47.1 (45422) - http://www.bohemiancoding.com/sketch -->
    <title>Group</title>
    <desc>Created with Sketch.</desc>
    <defs></defs>
    <g id="Page-1" stroke="none" stroke-width="1" fill="none" fill-rule="evenodd">
        <g id="Artboard" transform="translate(-30.000000, -27.000000)" stroke-width="2" stroke="#000000">
            <g id="Group" transform="translate(31.000000, 29.000000)">
                <path id="Polygon-3" d="M141.595154,0L283.190307,81.75L283.190307,245.25L141.595154,327L8.8817842e-14,245.25L-3.55271368e-15,81.75Z" class="RhSJqCps_0"></path>
                <path id="Polygon-3-Copy-4" d="M849.595154,245L991.190307,326.75L991.190307,490.25L849.595154,572L708,490.25L708,326.75Z" class="RhSJqCps_1"></path>
                <path id="Polygon-3-Copy" d="M283.595154,245L425.190307,326.75L425.190307,490.25L283.595154,572L142,490.25L142,326.75Z" class="RhSJqCps_2"></path>
                <path id="Polygon-3-Copy-5" d="M708.595154,490L850.190307,571.75L850.190307,735.25L708.595154,817L567,735.25L567,571.75Z" class="RhSJqCps_3"></path>
                <path id="Polygon-3-Copy-7" d="M850.595154,735L992.190307,816.75L992.190307,980.25L850.595154,1062L709,980.25L709,816.75Z" class="RhSJqCps_4"></path>
                <path id="Polygon-3-Copy-6" d="M425.595154,490L567.190307,571.75L567.190307,735.25L425.595154,817L284,735.25L284,571.75Z" class="RhSJqCps_5"></path>
                <path id="Polygon-3-Copy-8" d="M142.595154,490L284.190307,571.75L284.190307,735.25L142.595154,817L1,735.25L1,571.75Z" class="RhSJqCps_6"></path>
                <path id="Polygon-3-Copy-9" d="M284.595154,735L426.190307,816.75L426.190307,980.25L284.595154,1062L143,980.25L143,816.75Z" class="RhSJqCps_7"></path>
            </g>
        </g>
    </g>
<style></style></svg>