<?xml version="1.0" encoding="UTF-8"?>
<svg width="799px" height="577px" viewBox="0 0 799 577" version="1.1" xmlns="http://www.w3.org/2000/svg" xmlns:xlink="http://www.w3.org/1999/xlink">
    <!-- Generator: Sketch 47.1 (45422) - http://www.bohemiancoding.com/sketch -->
    <title>Group</title>
    <desc>Created with Sketch.</desc>
    <defs></defs>
    <g id="Page-1" stroke="none" stroke-width="1" fill="none" fill-rule="evenodd">
        <g id="Artboard" transform="translate(-166.000000, -27.000000)" stroke-width="2" stroke="#000000">
            <g id="Group" transform="translate(167.000000, 29.000000)">
                <polygon id="Polygon-3" points="299.5 0 399 57.25 399 171.75 299.5 229 200 171.75 200 57.25"></polygon>
                <polygon id="Polygon-3-Copy" points="399.5 172 499 229.25 499 343.75 399.5 401 300 343.75 300 229.25"></polygon>
                <polygon id="Polygon-3-Copy-7" points="199.5 172 299 229.25 299 343.75 199.5 401 100 343.75 100 229.25"></polygon>
                <polygon id="Polygon-3-Copy-2" points="596.5 172 696 229.25 696 343.75 596.5 401 497 343.75 497 229.25"></polygon>
                <polygon id="Polygon-3-Copy-3" points="697.5 0 797 57.25 797 171.75 697.5 229 598 171.75 598 57.25"></polygon>
                <polygon id="Polygon-3-Copy-5" points="696.5 344 796 401.25 796 515.75 696.5 573 597 515.75 597 401.25"></polygon>
                <polygon id="Polygon-3-Copy-8" points="300.5 344 400 401.25 400 515.75 300.5 573 201 515.75 201 401.25"></polygon>
                <polygon id="Polygon-3-Copy-9" points="99.5 344 199 401.25 199 515.75 99.5 573 3.19744231e-14 515.75 -3.19744231e-14 401.25"></polygon>
            </g>
        </g>
    </g>
</svg>