<?xml version="1.0" encoding="UTF-8"?>
<svg width="896px" height="577px" viewBox="0 0 896 577" version="1.1" xmlns="http://www.w3.org/2000/svg" xmlns:xlink="http://www.w3.org/1999/xlink">
    <!-- Generator: Sketch 47.1 (45422) - http://www.bohemiancoding.com/sketch -->
    <title>Group</title>
    <desc>Created with Sketch.</desc>
    <defs></defs>
    <g id="Page-1" stroke="none" stroke-width="1" fill="none" fill-rule="evenodd">
        <g id="Artboard" transform="translate(-3.000000, -157.000000)" stroke-width="2" stroke="#000000">
            <g id="Group" transform="translate(4.000000, 159.000000)">
                <polygon id="Polygon-3" points="397.5 0 497 57.25 497 171.75 397.5 229 298 171.75 298 57.25"></polygon>
                <polygon id="Polygon-3-Copy" points="497.5 172 597 229.25 597 343.75 497.5 401 398 343.75 398 229.25"></polygon>
                <polygon id="Polygon-3-Copy-7" points="298.5 172 398 229.25 398 343.75 298.5 401 199 343.75 199 229.25"></polygon>
                <polygon id="Polygon-3-Copy-2" points="696.5 172 796 229.25 796 343.75 696.5 401 597 343.75 597 229.25"></polygon>
                <polygon id="Polygon-3-Copy-5" points="794.5 344 894 401.25 894 515.75 794.5 573 695 515.75 695 401.25"></polygon>
                <polygon id="Polygon-3-Copy-8" points="398.5 344 498 401.25 498 515.75 398.5 573 299 515.75 299 401.25"></polygon>
                <polygon id="Polygon-3-Copy-10" points="99.5 172 199 229.25 199 343.75 99.5 401 3.19744231e-14 343.75 -3.19744231e-14 229.25"></polygon>
            </g>
        </g>
    </g>
</svg>