<?xml version="1.0" encoding="UTF-8"?>
<svg width="28px" height="41px" viewBox="0 0 28 41" version="1.1" xmlns="http://www.w3.org/2000/svg" xmlns:xlink="http://www.w3.org/1999/xlink">
    <!-- Generator: Sketch 47.1 (45422) - http://www.bohemiancoding.com/sketch -->
    <title> copy 5</title>
    <desc>Created with Sketch.</desc>
    <defs></defs>
    <g id="Page-1" stroke="none" stroke-width="1" fill="none" fill-rule="evenodd">
        <path d="M21,13.6666667 C21,11.7803725 20.3164131,10.1699285 18.9492188,8.83528646 C17.5820244,7.50064437 15.9323013,6.83333333 14,6.83333333 C12.0676987,6.83333333 10.4179756,7.50064437 9.05078125,8.83528646 C7.68358691,10.1699285 7,11.7803725 7,13.6666667 C7,15.5529608 7.68358691,17.1634048 9.05078125,18.4980469 C10.4179756,19.832689 12.0676987,20.5 14,20.5 C15.9323013,20.5 17.5820244,19.832689 18.9492188,18.4980469 C20.3164131,17.1634048 21,15.5529608 21,13.6666667 Z M28,13.6666667 C28,15.6063465 27.6992218,17.1989955 27.0976563,18.4446615 L17.1445313,39.1048177 C16.8528631,39.6920602 16.4199247,40.1547292 15.8457031,40.4928385 C15.2714815,40.8309479 14.6562533,41 14,41 C13.3437467,41 12.7285185,40.8309479 12.1542969,40.4928385 C11.5800753,40.1547292 11.1562514,39.6920602 10.8828125,39.1048177 L0.90234375,18.4446615 C0.300778242,17.1989955 0,15.6063465 0,13.6666667 C0,9.89407836 1.36717383,6.67319043 4.1015625,4.00390625 C6.83595117,1.33462207 10.1353973,0 14,0 C17.8646027,0 21.1640488,1.33462207 23.8984375,4.00390625 C26.6328262,6.67319043 28,9.89407836 28,13.6666667 Z" id="-copy-5" fill="#000000"></path>
    </g>
</svg>