<?xml version="1.0" encoding="UTF-8"?>
<svg width="35px" height="30px" viewBox="0 0 35 30" version="1.1" xmlns="http://www.w3.org/2000/svg" xmlns:xlink="http://www.w3.org/1999/xlink">
    <!-- Generator: Sketch 47.1 (45422) - http://www.bohemiancoding.com/sketch -->
    <title> copy 5</title>
    <desc>Created with Sketch.</desc>
    <defs></defs>
    <g id="Page-1" stroke="none" stroke-width="1" fill="none" fill-rule="evenodd">
        <path d="M17.5,30 C17.1614566,30 16.8750012,29.8828137 16.640625,29.6484375 L4.453125,17.890625 C4.32291602,17.7864578 4.14388135,17.6171887 3.91601562,17.3828125 C3.6881499,17.1484363 3.32682539,16.7220083 2.83203125,16.1035156 C2.33723711,15.4850229 1.8945332,14.8502637 1.50390625,14.1992187 C1.1132793,13.5481738 0.764975488,12.7604213 0.458984375,11.8359375 C0.152993262,10.9114537 0,10.0130252 0,9.140625 C0,6.27602734 0.826814648,4.03646641 2.48046875,2.421875 C4.13412285,0.807283594 6.41925625,0 9.3359375,0 C10.1432332,0 10.9667927,0.139972559 11.8066406,0.419921875 C12.6464886,0.699871191 13.4277308,1.07747158 14.1503906,1.55273437 C14.8730505,2.02799717 15.4947891,2.47395625 16.015625,2.890625 C16.5364609,3.30729375 17.0312477,3.74999766 17.5,4.21875 C17.9687523,3.74999766 18.4635391,3.30729375 18.984375,2.890625 C19.5052109,2.47395625 20.1269495,2.02799717 20.8496094,1.55273437 C21.5722692,1.07747158 22.3535114,0.699871191 23.1933594,0.419921875 C24.0332073,0.139972559 24.8567668,0 25.6640625,0 C28.5807437,0 30.8658771,0.807283594 32.5195312,2.421875 C34.1731854,4.03646641 35,6.27602734 35,9.140625 C35,12.0182436 33.5091295,14.9479018 30.5273437,17.9296875 L18.359375,29.6484375 C18.1249988,29.8828137 17.8385434,30 17.5,30 Z" id="-copy-5" fill="#000000"></path>
    </g>
</svg>