<?xml version="1.0" encoding="UTF-8"?>
<svg width="340px" height="416px" viewBox="0 0 340 416" version="1.1" xmlns="http://www.w3.org/2000/svg" xmlns:xlink="http://www.w3.org/1999/xlink">
    <!-- Generator: Sketch 47.1 (45422) - http://www.bohemiancoding.com/sketch -->
    <title>Page 1</title>
    <desc>Created with Sketch.</desc>
    <defs></defs>
    <g id="Page-1" stroke="none" stroke-width="1" fill="none" fill-rule="evenodd">
        <g id="Desktop-HD" transform="translate(-419.000000, -3954.000000)" stroke="#000000" stroke-width="2">
            <g id="Page-1" transform="translate(420.000000, 3955.000000)">
                <path d="M99.4861181,41.3943176 C99.4861181,41.3943176 74.2175137,76.9666068 79.8327591,110.198614 C79.8327591,110.198614 52.4584377,140.388254 45.9073181,161.684822 C45.9073181,161.684822 41.9298526,171.514007 37.48445,175.258459 C33.0390473,179.00291 27.1898334,184.151531 23.9142736,188.364039 C20.6387137,192.576547 20.4047452,195.852942 15.2574369,194.448773 C15.2574369,194.448773 20.1707766,201.001563 27.4238019,197.959196 C27.4238019,197.959196 3.79297749,217.14951 5.66472596,239.616219 C5.66472596,239.616219 -3.46004783,268.40169 1.45227905,284.08158 C6.36663164,299.761471 8.00441155,307.017359 5.89869452,312.398995 C3.79297749,317.782657 9.87616002,324.80249 9.87616002,324.80249 C9.87616002,324.80249 5.89869452,353.823002 23.680305,355.226159 C41.4619155,356.630328 87.7876901,363.417146 92.7010299,364.120244 C97.6143696,364.821316 100.655961,373.247345 102.293741,381.203291 C103.931521,389.161263 135.751245,417.010621 152.830949,413.733213 C169.910654,410.456818 202.432284,384.245658 171.314466,374.417486 C171.314466,374.417486 153.064918,359.43968 153.766824,348.907397 L166.869063,348.43934 C166.869063,348.43934 182.310988,363.885203 194.009416,362.01399 C205.707844,360.140751 212.024995,360.608808 212.024995,360.608808 C212.024995,360.608808 226.063108,358.971623 229.806605,350.311566 L245.950436,352.41782 L265.837763,352.651848 C265.837763,352.651848 274.260632,373.948416 281.513657,376.991796 C288.766682,380.034163 323.400106,378.372664 323.400106,378.372664 C323.400106,378.372664 338.854185,376.291738 337.962876,359.646354 C337.070555,342.998944 309.432892,341.215872 309.432892,341.215872 C309.432892,341.215872 311.810053,325.462024 302.300396,314.164844 C292.790739,302.86969 287.738639,289.493609 256.832506,282.657149 C256.832506,282.657149 236.326327,165.834517 209.283207,143.540037 C209.283207,143.540037 212.551677,117.679412 221.170026,114.409096 C229.788374,111.139792 239.892575,52.2832149 219.08963,30.5834296 C219.08963,30.5834296 225.628595,21.3681886 222.655878,11.5582525 C219.684173,1.74932947 213.443999,-7.76275254 198.287698,9.77518032 C198.287698,9.77518032 153.413339,6.50486392 143.309138,12.1529475 C133.204938,17.8010312 129.638689,18.0978722 129.638689,18.0978722 C129.638689,18.0978722 122.209428,20.1787984 115.076932,18.0978722 C107.944436,16.0169459 102.59557,12.1529475 95.7598396,15.423264 C88.9251217,18.6925672 90.4332567,37.342894 99.4861181,41.3943176 Z" id="Stroke-1"></path>
                <path d="M140.507056,24.9966172 C140.507056,24.9966172 148.525809,27.9578784 155.357236,32.1040476 C162.18765,36.2492076 167.53416,38.0265698 172.879657,32.1040476 C178.225155,26.1805161 190.402079,18.1405004 202.281412,30.4528468 C214.161758,42.7641839 223.071258,51.3522448 223.071258,51.3522448 C223.071258,51.3522448 228.714346,56.6833223 220.695594,62.9015669 C212.676841,69.1208208 215.943253,76.2282512 220.399015,78.8927806 C224.853766,81.5583193 222.77468,98.7344412 211.488503,102.583879 C200.203339,106.434326 224.259596,103.768787 209.112839,124.201892 C193.966081,144.636007 181.789157,185.206495 187.728824,192.905371 C193.669503,200.605255 205.251246,221.335092 205.251246,221.335092 C205.251246,221.335092 209.112839,231.995228 186.541498,210.673947 C163.970157,189.351655 176.44366,218.077099 176.44366,218.077099 C176.44366,218.077099 177.334407,226.961892 162.18765,194.38701 C147.040892,161.81112 125.360299,146.708082 111.105301,152.03916 C96.8492914,157.369228 75.7628672,152.630605 87.3456222,130.125424 C98.9283772,107.618225 118.826463,108.210679 118.826463,108.210679 C118.826463,108.210679 105.462213,69.1208208 106.94713,66.4552821 C108.432046,63.7907527 113.777544,64.0864751 113.183375,54.6102376 C112.590218,45.1340002 136.568535,23.3989089 140.507056,24.9966172 Z" id="Stroke-3"></path>
                <path d="M173.962379,60.2940937 C173.962379,60.2940937 180.99394,75.6998101 188.610632,78.0696872 C196.228323,80.4405742 202.087624,82.5145954 205.017275,72.1444894 C207.946925,61.7753932 209.411751,51.9990186 196.228323,43.4060681 C183.044895,34.8151371 185.094851,45.1842333 185.094851,45.1842333 C185.094851,45.1842333 168.958807,51.4911157 173.962379,60.2940937 Z" id="Stroke-5"></path>
                <path d="M152.746886,56.6165686 C152.746886,56.6165686 154.160307,81.5371037 150.307101,83.0214559 C146.453895,84.504797 128.7749,85.6908632 120.984745,75.6037392 C113.193569,65.5166152 115.590461,57.2101072 120.984745,55.1332275 C126.378008,53.0563477 123.981116,49.4961268 131.771271,50.6832041 C139.562447,51.8702815 143.457525,53.9461501 144.057003,49.199863 C144.656481,44.4525648 154.245072,43.5627624 152.746886,56.6165686 Z" id="Stroke-7"></path>
                <path d="M180,63.7669279 C180,63.7669279 180.311055,57.0899757 185.270648,57.0006909 C190.229225,56.911406 188.407624,65.5089525 180,63.7669279 Z" id="Stroke-9"></path>
                <path d="M148,69.7668133 C148,69.7668133 147.688695,63.0890809 142.730195,63.000692 C137.770678,62.9113318 139.591711,71.5093372 148,69.7668133 Z" id="Stroke-11"></path>
                <path d="M162.162132,97.2000226 L159,95.6509821 C159,95.6509821 167.206885,86.1606825 180,91.7774103 L178.366942,93.6001534 C178.366942,93.6001534 172.685404,93.9078262 173.253855,97.2000226 C173.821316,100.49319 169.671823,103.009895 167.1029,98.7500337 C164.533978,94.4892017 162.162132,97.2000226 162.162132,97.2000226 Z" id="Stroke-13"></path>
                <path d="M145.191497,194 C145.191497,194 142.895192,219.43195 154.206095,228.23555 C165.515983,237.040161 204.854812,293.12157 208.133217,305.185987 C211.410606,317.250405 222.885024,321.815347 221.900893,329.314822 C221.900893,329.314822 235.294822,340.688286 229.581988,350" id="Stroke-15"></path>
                <path d="M81.0134808,241 C81.0134808,241 80.0389007,257.407071 94.6626369,266.593607 C109.286373,275.78116 127.809437,293.171232 137.559265,294.483594 C147.308087,295.795956 154.352651,339.862258 152.780033,349" id="Stroke-17"></path>
                <path d="M258,283 C258,283 227.666067,279.709873 213.449175,268.61037 C199.23024,257.509855 191,249 191,249" id="Stroke-19"></path>
                <path d="M150.916541,82.3904993 C150.916541,82.3904993 143.183828,93.702927 149.449241,101.518897 C155.71364,109.335883 169.33278,113 169.33278,113 C169.33278,113 185.212658,105.22061 186.517825,101.518897 C187.822993,97.8181998 195.915438,88.12343 186.517825,77" id="Stroke-21"></path>
            </g>
        </g>
    </g>
</svg>