<?xml version="1.0" encoding="UTF-8"?>
<svg width="225px" height="353px" viewBox="0 0 225 353" version="1.1" xmlns="http://www.w3.org/2000/svg" xmlns:xlink="http://www.w3.org/1999/xlink">
    <!-- Generator: Sketch 47.1 (45422) - http://www.bohemiancoding.com/sketch -->
    <title>Group 13</title>
    <desc>Created with Sketch.</desc>
    <defs></defs>
    <g id="Page-1" stroke="none" stroke-width="1" fill="none" fill-rule="evenodd">
        <g id="Desktop-HD" transform="translate(-1162.000000, -1115.000000)" stroke="#000000" stroke-width="2">
            <g id="Group-13" transform="translate(1148.000000, 1096.000000)">
                <g id="Page-1" transform="translate(122.346717, 64.346717) rotate(-315.000000) translate(-122.346717, -64.346717) translate(75.346717, 20.346717)">
                    <path d="M21.0278,36.2378 C21.0278,28.9998 16.4328,23.1328 10.7638,23.1328 C5.0948,23.1328 0.5008,28.9998 0.5008,36.2378 C0.5008,43.4748 5.0948,49.3418 10.7638,49.3418 C16.4328,49.3418 21.0278,43.4748 21.0278,36.2378 Z" id="Stroke-1"></path>
                    <path d="M31.2925,26.7104 C36.9605,26.7104 41.5565,20.8424 41.5565,13.6054 C41.5565,6.3674 36.9605,0.5004 31.2925,0.5004 C25.6235,0.5004 21.0275,6.3674 21.0275,13.6054 C21.0275,20.8424 25.6235,26.7104 31.2925,26.7104 Z" id="Stroke-3"></path>
                    <path d="M82.9487,23.1323 C77.2797,23.1323 72.6847,28.9993 72.6847,36.2373 C72.6847,43.4753 77.2797,49.3423 82.9487,49.3423 C88.6177,49.3423 93.2137,43.4753 93.2137,36.2373 C93.2137,28.9993 88.6177,23.1323 82.9487,23.1323 Z" id="Stroke-5"></path>
                    <path d="M62.4204,26.7104 C68.0894,26.7104 72.6854,20.8424 72.6854,13.6054 C72.6854,6.3674 68.0894,0.5004 62.4204,0.5004 C56.7524,0.5004 52.1564,6.3674 52.1564,13.6054 C52.1564,20.8424 56.7524,26.7104 62.4204,26.7104 Z" id="Stroke-7"></path>
                    <path d="M77.686,56.645 C77.686,56.645 66.403,49.382 63.702,43.773 C63.702,43.773 60.365,31.537 49.24,31.537 L46.856,31.537 L44.473,31.537 C33.348,31.537 30.011,43.773 30.011,43.773 C27.31,49.382 16.027,56.645 16.027,56.645 C6.015,63.638 9.67,74.762 15.232,81.436 C20.794,88.111 34.302,90.018 38.434,84.615 C42.566,79.211 46.856,80.006 46.856,80.006 C46.856,80.006 51.147,79.211 55.279,84.615 C59.411,90.018 72.918,88.111 78.481,81.436 C84.043,74.762 87.698,63.638 77.686,56.645 Z" id="Stroke-9"></path>
                </g>
                <g id="Page-1-Copy" transform="translate(193.346717, 217.346717) rotate(-315.000000) translate(-193.346717, -217.346717) translate(146.346717, 173.346717)">
                    <path d="M21.0278,36.2378 C21.0278,28.9998 16.4328,23.1328 10.7638,23.1328 C5.0948,23.1328 0.5008,28.9998 0.5008,36.2378 C0.5008,43.4748 5.0948,49.3418 10.7638,49.3418 C16.4328,49.3418 21.0278,43.4748 21.0278,36.2378 Z" id="Stroke-1"></path>
                    <path d="M31.2925,26.7104 C36.9605,26.7104 41.5565,20.8424 41.5565,13.6054 C41.5565,6.3674 36.9605,0.5004 31.2925,0.5004 C25.6235,0.5004 21.0275,6.3674 21.0275,13.6054 C21.0275,20.8424 25.6235,26.7104 31.2925,26.7104 Z" id="Stroke-3"></path>
                    <path d="M82.9487,23.1323 C77.2797,23.1323 72.6847,28.9993 72.6847,36.2373 C72.6847,43.4753 77.2797,49.3423 82.9487,49.3423 C88.6177,49.3423 93.2137,43.4753 93.2137,36.2373 C93.2137,28.9993 88.6177,23.1323 82.9487,23.1323 Z" id="Stroke-5"></path>
                    <path d="M62.4204,26.7104 C68.0894,26.7104 72.6854,20.8424 72.6854,13.6054 C72.6854,6.3674 68.0894,0.5004 62.4204,0.5004 C56.7524,0.5004 52.1564,6.3674 52.1564,13.6054 C52.1564,20.8424 56.7524,26.7104 62.4204,26.7104 Z" id="Stroke-7"></path>
                    <path d="M77.686,56.645 C77.686,56.645 66.403,49.382 63.702,43.773 C63.702,43.773 60.365,31.537 49.24,31.537 L46.856,31.537 L44.473,31.537 C33.348,31.537 30.011,43.773 30.011,43.773 C27.31,49.382 16.027,56.645 16.027,56.645 C6.015,63.638 9.67,74.762 15.232,81.436 C20.794,88.111 34.302,90.018 38.434,84.615 C42.566,79.211 46.856,80.006 46.856,80.006 C46.856,80.006 51.147,79.211 55.279,84.615 C59.411,90.018 72.918,88.111 78.481,81.436 C84.043,74.762 87.698,63.638 77.686,56.645 Z" id="Stroke-9"></path>
                </g>
                <g id="Page-1-Copy-2" transform="translate(64.346717, 321.346717) rotate(-315.000000) translate(-64.346717, -321.346717) translate(17.346717, 277.346717)">
                    <path d="M21.0278,36.2378 C21.0278,28.9998 16.4328,23.1328 10.7638,23.1328 C5.0948,23.1328 0.5008,28.9998 0.5008,36.2378 C0.5008,43.4748 5.0948,49.3418 10.7638,49.3418 C16.4328,49.3418 21.0278,43.4748 21.0278,36.2378 Z" id="Stroke-1"></path>
                    <path d="M31.2925,26.7104 C36.9605,26.7104 41.5565,20.8424 41.5565,13.6054 C41.5565,6.3674 36.9605,0.5004 31.2925,0.5004 C25.6235,0.5004 21.0275,6.3674 21.0275,13.6054 C21.0275,20.8424 25.6235,26.7104 31.2925,26.7104 Z" id="Stroke-3"></path>
                    <path d="M82.9487,23.1323 C77.2797,23.1323 72.6847,28.9993 72.6847,36.2373 C72.6847,43.4753 77.2797,49.3423 82.9487,49.3423 C88.6177,49.3423 93.2137,43.4753 93.2137,36.2373 C93.2137,28.9993 88.6177,23.1323 82.9487,23.1323 Z" id="Stroke-5"></path>
                    <path d="M62.4204,26.7104 C68.0894,26.7104 72.6854,20.8424 72.6854,13.6054 C72.6854,6.3674 68.0894,0.5004 62.4204,0.5004 C56.7524,0.5004 52.1564,6.3674 52.1564,13.6054 C52.1564,20.8424 56.7524,26.7104 62.4204,26.7104 Z" id="Stroke-7"></path>
                    <path d="M77.686,56.645 C77.686,56.645 66.403,49.382 63.702,43.773 C63.702,43.773 60.365,31.537 49.24,31.537 L46.856,31.537 L44.473,31.537 C33.348,31.537 30.011,43.773 30.011,43.773 C27.31,49.382 16.027,56.645 16.027,56.645 C6.015,63.638 9.67,74.762 15.232,81.436 C20.794,88.111 34.302,90.018 38.434,84.615 C42.566,79.211 46.856,80.006 46.856,80.006 C46.856,80.006 51.147,79.211 55.279,84.615 C59.411,90.018 72.918,88.111 78.481,81.436 C84.043,74.762 87.698,63.638 77.686,56.645 Z" id="Stroke-9"></path>
                </g>
            </g>
        </g>
    </g>
</svg>